<svg xmlns="http://www.w3.org/2000/svg" xmlns:xlink="http://www.w3.org/1999/xlink" viewBox="0 0 938.09 974.07"><defs><style>.cls-1{isolation:isolate;}.cls-2{opacity:0;}.cls-3{fill:#202249;}.cls-10,.cls-11,.cls-12,.cls-13,.cls-14,.cls-15,.cls-16,.cls-17,.cls-18,.cls-19,.cls-20,.cls-21,.cls-22,.cls-23,.cls-24,.cls-25,.cls-26,.cls-27,.cls-28,.cls-29,.cls-3,.cls-30,.cls-31,.cls-32,.cls-33,.cls-34,.cls-35,.cls-36,.cls-37,.cls-38,.cls-39,.cls-4,.cls-40,.cls-41,.cls-42,.cls-43,.cls-44,.cls-45,.cls-46,.cls-47,.cls-5,.cls-6,.cls-7,.cls-8,.cls-9{fill-rule:evenodd;}.cls-4{fill:url(#GradientFill_22);}.cls-5{fill:#1e2353;}.cls-5,.cls-7{opacity:0.3;}.cls-15,.cls-23,.cls-24,.cls-25,.cls-28,.cls-43,.cls-5{mix-blend-mode:multiply;}.cls-6{fill:url(#GradientFill_22-2);}.cls-47,.cls-7{fill:#955cf1;}.cls-8{fill:url(#linear-gradient);}.cls-9{fill:url(#linear-gradient-2);}.cls-10{fill:#4a9ff8;}.cls-11{fill:#5858f0;}.cls-12{fill:url(#linear-gradient-3);}.cls-13{fill:url(#linear-gradient-4);}.cls-14{fill:url(#linear-gradient-5);}.cls-15{fill:#3469c0;opacity:0.35;}.cls-16{fill:url(#linear-gradient-6);}.cls-17{fill:url(#linear-gradient-7);}.cls-18{fill:#ffa698;}.cls-19{fill:#ff9080;}.cls-20{fill:#d0e7ff;}.cls-21{fill:url(#linear-gradient-8);}.cls-22{fill:url(#linear-gradient-9);}.cls-23,.cls-24,.cls-25,.cls-27,.cls-28,.cls-43{opacity:0.5;}.cls-23{fill:url(#linear-gradient-10);}.cls-24{fill:url(#linear-gradient-11);}.cls-25{fill:url(#linear-gradient-12);}.cls-26{fill:url(#linear-gradient-13);}.cls-27,.cls-30{fill:#fffcf1;}.cls-28{fill:url(#linear-gradient-14);}.cls-29{fill:url(#linear-gradient-15);}.cls-31{fill:#fff;}.cls-32{fill:url(#linear-gradient-16);}.cls-33{fill:url(#linear-gradient-17);}.cls-34{fill:#ffdb59;}.cls-35,.cls-37,.cls-45,.cls-47{opacity:0.2;}.cls-35{fill:url(#linear-gradient-18);}.cls-36{fill:url(#linear-gradient-19);}.cls-37{fill:url(#linear-gradient-20);}.cls-38{fill:url(#Degradado_sin_nombre_12);}.cls-39{fill:#6d6afd;}.cls-40{fill:#b269eb;}.cls-41{fill:url(#linear-gradient-21);}.cls-42{fill:url(#linear-gradient-22);}.cls-43{fill:url(#linear-gradient-23);}.cls-44{fill:url(#linear-gradient-24);}.cls-45{fill:url(#linear-gradient-25);}.cls-46{fill:url(#linear-gradient-26);}</style><linearGradient id="GradientFill_22" x1="519.7" y1="140.52" x2="519.69" y2="225.61" gradientUnits="userSpaceOnUse"><stop offset="0" stop-color="#324179"/><stop offset="1" stop-color="#0c124d"/></linearGradient><linearGradient id="GradientFill_22-2" x1="533.87" y1="145.95" x2="533.81" y2="290.9" xlink:href="#GradientFill_22"/><linearGradient id="linear-gradient" x1="602.06" y1="289.45" x2="510.8" y2="843.36" gradientUnits="userSpaceOnUse"><stop offset="0" stop-color="#d1e8ff"/><stop offset="1" stop-color="#eaefff"/></linearGradient><linearGradient id="linear-gradient-2" x1="655.03" y1="184.62" x2="442.06" y2="866.85" gradientUnits="userSpaceOnUse"><stop offset="0" stop-color="#6d6afe"/><stop offset="1" stop-color="#3fb0f7"/></linearGradient><linearGradient id="linear-gradient-3" x1="451.07" y1="10.28" x2="451.21" y2="106.4" gradientUnits="userSpaceOnUse"><stop offset="0" stop-color="#5a2d68"/><stop offset="1" stop-color="#22043d"/></linearGradient><linearGradient id="linear-gradient-4" x1="453.76" y1="174.43" x2="449.64" y2="172.96" gradientUnits="userSpaceOnUse"><stop offset="0" stop-color="#ff8a78"/><stop offset="1" stop-color="#ffa799"/></linearGradient><linearGradient id="linear-gradient-5" x1="455.75" y1="141.71" x2="455.17" y2="59.18" gradientUnits="userSpaceOnUse"><stop offset="0" stop-color="#965cf2"/><stop offset="1" stop-color="#ff8adc"/></linearGradient><linearGradient id="linear-gradient-6" x1="508.27" y1="122.82" x2="488.57" y2="60.18" xlink:href="#linear-gradient-5"/><linearGradient id="linear-gradient-7" x1="459.68" y1="51.64" x2="464.66" y2="57.7" xlink:href="#linear-gradient-4"/><linearGradient id="linear-gradient-8" x1="469.24" y1="187.13" x2="465.79" y2="185.54" xlink:href="#linear-gradient-4"/><linearGradient id="linear-gradient-9" x1="490.08" y1="153" x2="482.76" y2="74.19" xlink:href="#linear-gradient-5"/><linearGradient id="linear-gradient-10" x1="753.02" y1="630.35" x2="806.77" y2="517.31" xlink:href="#linear-gradient-5"/><linearGradient id="linear-gradient-11" x1="746.06" y1="430.41" x2="845.63" y2="284.96" xlink:href="#linear-gradient-5"/><linearGradient id="linear-gradient-12" x1="277.52" y1="578.68" x2="339.95" y2="442.52" xlink:href="#linear-gradient-5"/><linearGradient id="linear-gradient-13" x1="201.45" y1="430.39" x2="176.72" y2="501.28" gradientUnits="userSpaceOnUse"><stop offset="0" stop-color="#1c8ef4"/><stop offset="1" stop-color="#00cfdd"/></linearGradient><linearGradient id="linear-gradient-14" x1="285.48" y1="233.45" x2="336.04" y2="64.35" xlink:href="#linear-gradient-5"/><linearGradient id="linear-gradient-15" x1="270.97" y1="63.2" x2="213.34" y2="252.5" xlink:href="#linear-gradient-2"/><linearGradient id="linear-gradient-16" x1="757.43" y1="593.73" x2="774.34" y2="560.89" xlink:href="#linear-gradient-5"/><linearGradient id="linear-gradient-17" x1="553.93" y1="643.23" x2="513.25" y2="706.52" gradientUnits="userSpaceOnUse"><stop offset="0" stop-color="#ff66bc"/><stop offset="0.56" stop-color="#ff8adc"/><stop offset="1" stop-color="#ffbba8"/></linearGradient><linearGradient id="linear-gradient-18" x1="564.85" y1="665.87" x2="458.78" y2="670.43" xlink:href="#linear-gradient-17"/><linearGradient id="linear-gradient-19" x1="710.3" y1="802.78" x2="729.87" y2="748.99" xlink:href="#linear-gradient-5"/><linearGradient id="linear-gradient-20" x1="715.38" y1="825.16" x2="708.23" y2="691.12" xlink:href="#linear-gradient-5"/><linearGradient id="Degradado_sin_nombre_12" x1="766.83" y1="280.17" x2="730.65" y2="400.77" gradientUnits="userSpaceOnUse"><stop offset="0" stop-color="#0097ef"/><stop offset="0.09" stop-color="#00a5e5"/><stop offset="0.3" stop-color="#00bfd1"/><stop offset="0.52" stop-color="#00d1c3"/><stop offset="0.75" stop-color="#00dcbb"/><stop offset="0.99" stop-color="#00e0b8"/></linearGradient><linearGradient id="linear-gradient-21" x1="739.21" y1="339.02" x2="755.82" y2="287.97" xlink:href="#linear-gradient-5"/><linearGradient id="linear-gradient-22" x1="736.58" y1="336.61" x2="751.71" y2="310.84" xlink:href="#linear-gradient-2"/><linearGradient id="linear-gradient-23" x1="530.29" y1="497.65" x2="434.34" y2="120.17" xlink:href="#linear-gradient-5"/><linearGradient id="linear-gradient-24" x1="536.71" y1="226.91" x2="502.48" y2="275.58" xlink:href="#linear-gradient-2"/><linearGradient id="linear-gradient-25" x1="426.84" y1="288.77" x2="418.84" y2="300.09" xlink:href="#linear-gradient-2"/><linearGradient id="linear-gradient-26" x1="433.35" y1="288.04" x2="408.84" y2="306.63" xlink:href="#linear-gradient-2"/></defs><title>Recurso 6</title><g class="cls-1"><g id="Capa_2" data-name="Capa 2"><g id="Capa_1-2" data-name="Capa 1"><g class="cls-2"><path class="cls-3" d="M581.18,219.51c.54.31,1.26.53,2.12,1,2.78,6.7,3.83,8.67,3.28,9.33s-.39.26-.63,1.6c-.33,1.84,6.11,9.79,7.1,12.31a9.15,9.15,0,0,1,.23,6.69A34.58,34.58,0,0,1,586.42,262c-2.55,2.87-5.37,4.7-7.82,4.15-3-.68-2.5-3.39-2.05-6.06.16-1,2-3.08,1.84-4-.81-5.36-4.73-10-7.61-14.68-2.47-2.3-6.63-4.72-8.94-7.38-3.33-3.85-4-7.89.18-10.24,1.32-.76,4.64-4.49,6.34-4.35C571.61,219.73,577.06,217.1,581.18,219.51Z"/><path class="cls-4" d="M469.81,204.13c-2.24,6.1-.49,11.51,4.41,13.84l.09.09.6.21a12.15,12.15,0,0,0,1.61.51c5.86,1.74,14.63,3.32,20,4.34,21.38,4.08,53.25,6.63,68.21,12.34,5.87-4.31,7.61-12.31,3.77-17.11-16.32-7.78-38.37-17.89-47.62-21.31a26.43,26.43,0,0,0-7.72-1.3c13.78-12.42,28.37-25.88,34-37.34,4-8.12,4.66-19.39,7.46-26.44-22.49,6.58-26.8-7-30.93-11.76-3.54,5.19-3.46,4.23-7,9.78-12.13,18.78-30,45.4-42.16,65.17A31.82,31.82,0,0,0,469.81,204.13Z"/><path class="cls-5" d="M543.19,206.58c-9.17-4.14-17.49-7.76-22.32-9.54a26.43,26.43,0,0,0-7.72-1.3c13.78-12.42,28.37-25.88,34-37.34,4-8.12,4.66-19.39,7.46-26.44-6.34,1.85-11.23,2.11-15.08,1.41l.6,4.39c-17.35,17.28-48.9,57.43-51.84,83.65,10.61,2.47,39.58,6.18,44.23,6.7,1.21-7.77,6.29-14,10.64-21.53Zm-15.81-81.26c-1.46-2-2.57-3.85-3.67-5.12-2.25,3.3-3,4.12-4.23,5.7Z"/><path class="cls-3" d="M540.39,306.56c3.15,4.38-5.36,26.37-7.44,31-1.83,4.08-1.24,6.59,3.08,6.65,3.41.05,8.83-4.78,12.13-7.94,6.19-5.93,6.54-12,8.34-14.55l2.11-.67c1.54-.87,6.1-6.82,6.34-9.08a49.58,49.58,0,0,0-2.34-6.12c-3.37-6.21-4.11-3.5-8.54-7.3C549,302.22,552.59,303.69,540.39,306.56Z"/><path class="cls-6" d="M500,231.22c9.24,17.89,32.22,58.21,40.33,76.14,7.16,1.51,14.41-2.67,15-8.3-5.22-17.18-13.7-45.48-17.89-54.51a120.26,120.26,0,0,0-12.6-20c13.65-19.1,35.28-49.16,41.52-66.79,8.5-24-1.25-37.66-14.35-45.19-4.65-2.68-9.66,1.62-12-1.25-5.58,10.9-10.63,25.73-13.9,39.07-4.56,18.6-26.3,58.08-27.94,71.36a14.46,14.46,0,0,0,1.3,7.51C499.62,229.9,499.79,230.55,500,231.22Z"/><path class="cls-7" d="M866.26,942.54,237.44,588.86c-7.94-3.62-19.6-7-27.38-2.27l-19.92,12.16c-4,2.44-17.19,10.57-8.37,15.35,25.93,14.06,606.55,342.46,632.88,356.75,5,2.7,12.27,3.67,19.91,3s15.52-2.71,21.57-6.45l8-4.92c5.62-3.47,8.73-7.27,9-10.9S871.14,944.76,866.26,942.54Z"/><path class="cls-8" d="M309.58,12.56c-4.34-2.46-9.42-3.38-14.18-1.58l-10.64,4.15c-3.86,20,548,937.41,552.89,942.49l9.5-3.58c6.23-2.46,9.5-8.95,10.42-15.26l80.18-547.35a.2.2,0,0,0,0-.07c1.31-9.2-1.46-18.78-6.52-26.47a30.7,30.7,0,0,0-10.71-10.33Z"/><path class="cls-9" d="M910,358.61l-610.94-342c-11.56-6.4-22.56-.26-24.6,13.68L194.3,577.65c-2,13.94,5.64,30.45,17.19,36.85l611,342c11.56,6.4,22.59.27,24.63-13.67l80.19-547.36C929.3,381.53,921.59,365,910,358.61Z"/><path class="cls-10" d="M910,358.61l-610.94-342c-11.56-6.4-22.56-.26-24.6,13.68l-2.71,18.46L924.52,414.14l2.74-18.67C929.3,381.53,921.59,365,910,358.61Z"/><path class="cls-11" d="M295.29,30.23c4.63,1.06,8.19,6.58,7.95,12.33S299,52.1,294.41,51s-8.2-6.58-8-12.32S290.65,29.17,295.29,30.23Z"/><path class="cls-11" d="M316.39,42.35c4.63,1.06,8.19,6.58,7.95,12.32s-4.2,9.55-8.83,8.49-8.2-6.58-7.95-12.32S311.75,41.29,316.39,42.35Z"/><path class="cls-11" d="M339.22,55.66c4.63,1.06,8.19,6.58,7.95,12.32s-4.2,9.55-8.84,8.49-8.19-6.58-7.94-12.33S334.58,54.6,339.22,55.66Z"/><path class="cls-12" d="M418.77,14.28c-12.74,7.48-6.63,24.76,4.94,43,16.44,25.92-23.33,55.1,30.72,69.86-5.63-15.82,17.79-21.61,29.3-43.21C497,59,489.65,34,472.59,12.74,458.7-4.6,433.28-4.38,418.77,14.28Z"/><path class="cls-13" d="M444,178.08l3.12,11.75c1,2.52,1.56,3.2,5.18,1.57,2-1,1.35-5.08.81-8.08a17.51,17.51,0,0,1,.13-7.42,6.08,6.08,0,0,1,2.27-3.09c2.16-1.73,4.69-2.89,3.13-8.4-.81-2.88-.62-5-.68-8l-7.53-.49c.17,6.72-2.81,11.25-5.92,16.91C443,175.54,443.35,175,444,178.08Z"/><path class="cls-14" d="M470.83,103.5l-.06-.38a6.48,6.48,0,0,0-.24-1.62c-1.91-12.78-5.8-34.31-8.83-45.54-5.29-19.61-22.07-12.84-21.9-1.13.17,11.07,10.47,35.05,12.84,45.44-.85,7.57-4,45.37-2.91,52,.21,1.25.76,2.07.7,3.46a12.75,12.75,0,0,1-.64,2.73,88.17,88.17,0,0,1,8.84,1.5,19.82,19.82,0,0,1,.44-2.94c.51-1.43,1.81-2.15,2.4-3.36,2.9-5.92,7.68-37,9-47.11A12.91,12.91,0,0,0,470.83,103.5Z"/><path class="cls-15" d="M468.64,115.46c1.12-2.72,2.39-11.18,2.38-14.93,0-7.79-3-14.23-3.88-19.18L439.92,54.26c.17,5.08,6.09,18.59,8.52,28.57C452.23,98.39,460.47,111.8,468.64,115.46Z"/><path class="cls-16" d="M552.82,117.3C549,130,531,140,512.92,136c-4.31-4.79-5.59-3.3-9.53-7.17-3.59-3.52-8-8.32-14.21-14.61-3.45-5.4-17-7.61-23-10-6.77-2.65-12.78-8.19-15.58-19-1.35-5.21-7.27-21.18-9.39-26.5-6.15-15.38,7.18-21.13,16.2-15.43,5.77,2.41,18.51,5.43,24.8,6.6a105.56,105.56,0,0,0,11,1.64c7.49.72,15.62,6.19,21.44,10.82C530.25,74.89,551.45,99.91,552.82,117.3Z"/><path class="cls-17" d="M462.34,37.17a38.18,38.18,0,0,0,10.73,18.1C471.16,62.1,458.12,67,454,62.41a24,24,0,0,0-1.21-3.62c-.68-2-1.37-3.76-1.95-5.16Z"/><path class="cls-18" d="M424.48,28a22.18,22.18,0,0,0,6.77,14,6.5,6.5,0,0,1,1.89,3.13c1.69,6.2,3,7.47,7,10.3s5.32,4.67,7.52,4.9,4.36-1,6-2.18c3.4-2.43,7.2-9.08,9-13.48,1.33-3.25.5-4.07-.33-7.16,1-5.69-3-6.05-4.27-5.34-3.75,2-1.23,6.17-2.48,8.57C442.39,43.73,428.74,31.89,424.48,28Z"/><path class="cls-19" d="M424.48,28c7.34,12.21,23.48,15.29,31.11,12.78C442.39,43.73,428.74,31.89,424.48,28Z"/><path class="cls-15" d="M509.83,132.88l-.33.06c-2-1.32-3.44-1.48-6.11-4.1-3.59-3.52-8-8.32-14.21-14.61-1.76-2.75-6.15-4.68-10.82-6.21.73-12.63.41-41.49,4.55-45.25,5.71-5.18,13.58-8.62,20.14-1.88C515.44,73.62,503.11,120.73,509.83,132.88Z"/><polygon class="cls-10" points="492.36 149.84 484.51 120.31 489.93 115.48 539.47 143.28 534.86 148.45 513.34 162.84 492.36 149.84"/><path class="cls-20" d="M484.53,120.4l-3.61-11.53q30.91,17.14,61.81,34.31l-8,5.33Z"/><path class="cls-21" d="M476,168.82c-1.9,3.18-.9,10.08-1.52,13.36a53.6,53.6,0,0,1-2.92,9.58c-.4.85-13.05,12.08-13.78,11.52-1.67-1.29-2.75-10.16-.56-12.74s4-5.1,4.41-7.21.25-9.13,1.16-10.21c2.08-2.46,4.25-3.23,5.18-6.29Z"/><path class="cls-22" d="M500.62,125.89a19.1,19.1,0,0,0,.47-2.22c3.3-13.62,6.64-36.93,6.21-50.44-.32-10.31-5.34-19-17.44-15.68-3.72,1-8,3.86-8.58,8.75-.66,5.87.22,15.6.77,25.55.45,8,.41,22.28.71,28.09l-.15.54c-3.87,7.72-12.89,32.9-14.78,41.07a15.48,15.48,0,0,0,0,3.78,7.06,7.06,0,0,1-1,3,18.41,18.41,0,0,0,8.29,4.28,22.43,22.43,0,0,1,1.7-3c.52-.8,2.94-1.56,3.89-2.69,5-6,18.24-33.47,19.86-40.78Z"/><path class="cls-23" d="M835.73,548.36,726,488.11c-6.37-3.53-12.6-4-17.81-2-6.68,2.6-11.67,9.36-13.11,19.2l-12.44,89.25c-2.57,17.52,7.09,38.26,21.61,46.31L814,701.12c14.53,8,28.39.34,31-17.17l12.44-89.26C860,577.18,850.25,556.41,835.73,548.36Z"/><path class="cls-24" d="M675.08,234.45,915.71,351.82l-6.37,6.51-23.1,161.43c-2.35,16.56-15,23.9-28.11,16.37L632.89,407.35l-19.56-43.64Z"/><path class="cls-25" d="M372.9,483.52,224.13,401.05l-5,7.59L194.72,575l154.09,85.41c16.31,9,31.88.38,34.76-19.29l13.64-105.62C400.09,515.87,389.2,492.55,372.9,483.52Z"/><path class="cls-20" d="M366.31,520,348.54,636.77l2.82.34,7.7-3c8.43-3.32,12.86-12.1,14.1-20.64l13.07-101.25a.28.28,0,0,0,0-.09c1.77-12.45-2-25.42-8.82-35.82-3.69-5.61-8.54-10.75-14.5-14L54.56,291.41c-5.87-3.33-12.74-4.57-19.18-2.14l-6.78,2.65c-3.42,1.28-4.47,2.31-4.45,2.52C27.35,324.28,370.81,489.39,366.31,520Z"/><path class="cls-26" d="M355.16,465.39,46.8,294.47c-6.85-3.8-13.56-4.34-19.17-2.15-7.18,2.79-12.56,10.06-14.11,20.66L.45,414.24c-2.77,18.86,7.63,41.19,23.26,49.86L332.07,635c15.64,8.66,30.56.36,33.33-18.49l13.07-101.27C381.23,496.42,370.8,474.06,355.16,465.39Z"/><path class="cls-27" d="M351.5,496.91,138.69,379.85a5.37,5.37,0,0,0-4.58-.51c-1.72.67-3,2.41-3.37,4.94l-1.18,7.11c-.66,4.5,1.83,9.84,5.56,11.91L347.94,520.36c3.74,2.07,7.3.08,8-4.42l1.18-7.11c.66-4.51-1.84-9.85-5.58-11.92ZM233,524.44c3.74,2.07,6.24,7.41,5.58,11.92l-1.18,7.11c-.66,4.51-4.22,6.49-8,4.42l-107-57.61c-3.74-2.07-6.23-7.41-5.57-11.92l1.18-7.1c.37-2.54,1.66-4.28,3.37-4.95a5.36,5.36,0,0,1,4.59.52l107,57.61Zm112.15,15.95c3.74,2.07,6.23,7.42,5.57,11.92l-1.17,7.11c-.66,4.51-4.23,6.49-8,4.42l-212.81-117c-3.74-2.07-6.22-7.41-5.56-11.92l1.17-7.1c.37-2.54,1.66-4.28,3.38-4.94a5.3,5.3,0,0,1,4.58.51Z"/><path class="cls-27" d="M70.87,377.78c-10.06-5.58-20.74,2-20.63,16.51a29.18,29.18,0,0,0,8.29,20.16,19.78,19.78,0,0,0,4.08,3.05c10,5.57,20.67-1.95,20.59-16.44,0-7.55-3.2-15.35-8.22-20.19a20.19,20.19,0,0,0-4.11-3.09Zm-9.7,46.56a27.23,27.23,0,0,1-5.47-4.09c-6.8-6.53-11.05-17-11.15-27.12-.12-19.53,14.2-29.68,27.73-22.18a26.42,26.42,0,0,1,5.55,4.17c6.77,6.5,11,17,11.07,27.1.09,19.48-14.22,29.61-27.73,22.12Zm46.08-16.59c2.35,1.3,3.76,4.73,3.12,7.68l-2.46,11.44c-.63,2.92-3,4.22-5.41,2.92l-1.2-.67a3.36,3.36,0,0,0-4.76,1.32,38.21,38.21,0,0,1-2.19,3.24,6.75,6.75,0,0,0-.49,6.48l.63,1.55c1.21,3,.49,6.33-1.6,7.46l-8.29,4.47a3.39,3.39,0,0,1-3.36-.12,6.37,6.37,0,0,1-2.68-3.23l-.64-1.52a6.4,6.4,0,0,0-2.67-3.19,3.86,3.86,0,0,0-2-.51,35,35,0,0,1-3.54-.15c-1.89-.18-3.47,1.16-4,3.4l-.32,1.49c-.63,2.92-3.05,4.23-5.4,2.92l-9.24-5.12c-2.36-1.31-3.76-4.73-3.13-7.65l.32-1.49a7.8,7.8,0,0,0-1.8-6.59c-1-1.09-1.93-2.22-2.85-3.38a5.53,5.53,0,0,0-1.76-1.58,3.37,3.37,0,0,0-3.32-.12l-1.09.56a3.42,3.42,0,0,1-3.36-.12A6.41,6.41,0,0,1,31.14,424l-4.8-11.73c-1.21-3-.48-6.33,1.6-7.46l1.1-.59c1.62-.88,2.45-3.1,2.11-5.58-.23-1.57-.38-3.15-.48-4.73a7.16,7.16,0,0,0-3.25-5.75l-1.2-.67c-2.36-1.3-3.76-4.72-3.13-7.65l2.46-11.44c.64-3,3.06-4.26,5.41-3l1.2.67a3.38,3.38,0,0,0,4.77-1.31,32.93,32.93,0,0,1,2.19-3.25,6.71,6.71,0,0,0,.48-6.45L39,353.57c-1.2-3-.49-6.33,1.61-7.48l8.28-4.48a3.42,3.42,0,0,1,3.36.12A6.43,6.43,0,0,1,54.91,345l.63,1.55a6.31,6.31,0,0,0,2.67,3.19,3.84,3.84,0,0,0,2,.51,29.91,29.91,0,0,1,3.54.12c1.89.21,3.46-1.13,3.95-3.37l.32-1.49c.63-3,3-4.26,5.41-3l9.24,5.12c2.35,1.31,3.75,4.73,3.12,7.68l-.32,1.49a7.68,7.68,0,0,0,1.78,6.54c1,1.1,2,2.25,2.87,3.44a5.61,5.61,0,0,0,1.76,1.57,3.37,3.37,0,0,0,3.32.12l1.09-.59a3.44,3.44,0,0,1,3.36.12,6.46,6.46,0,0,1,2.69,3.24l4.8,11.72c1.2,3,.48,6.33-1.61,7.49l-1.1.59c-1.62.88-2.45,3.11-2.1,5.55.22,1.57.38,3.15.48,4.73a7.16,7.16,0,0,0,3.24,5.75Z"/><path class="cls-28" d="M338.11,97.38,271.56,65.21,245.29,229.57l-3.38,23.1L311.11,290c12,6.66,23.49.27,25.62-14.22L356,135.73C358.16,121.23,350.13,104,338.11,97.38Z"/><path class="cls-20" d="M330,136.47l-20.74,134,2.17.26,5.91-2.3c6.49-2.55,9.89-9.31,10.85-15.87l17.12-122s0-.05,0-.07c1.36-9.57-1.52-19.55-6.79-27.55a32,32,0,0,0-11.14-10.74L200.12,23c-4.51-2.56-9.8-3.52-14.75-1.65l-5.22,2c-2.62,1-3.43,1.77-3.41,1.94C179.19,48.24,333.45,112.93,330,136.47Z"/><path class="cls-29" d="M321.42,94.48,194.16,25.31c-5.27-2.92-10.43-3.33-14.75-1.65-5.52,2.15-9.66,7.74-10.85,15.89L151.44,161.61c-2.13,14.5,5.86,31.67,17.89,38.34L296.6,269.11c12,6.66,23.49.28,25.62-14.22l17.12-122.06C341.47,118.33,333.44,101.14,321.42,94.48Z"/><path class="cls-30" d="M297.84,236.44,170,167.81c-2.95-1.58-5.76.05-6.33,3.71s1.36,7.71,4.31,9.3l127.85,68.62c2.95,1.59,5.82,0,6.4-3.68s-1.42-7.73-4.37-9.32Zm5.72-37.15c2.94,1.58,4.91,5.79,4.36,9.32s-3.44,5.27-6.39,3.68L173.67,143.66c-2.95-1.59-4.87-5.75-4.31-9.29s3.39-5.29,6.34-3.71l127.86,68.63ZM316.71,115,188.85,46.41c-2.94-1.59-5.76.05-6.31,3.58l-1.43,9.09c-.55,3.54,1.37,7.71,4.32,9.29L313.29,137c2.94,1.58,5.81,0,6.37-3.56l1.41-9.09c.56-3.53-1.41-7.73-4.36-9.31Zm-7.4,47.39a9.48,9.48,0,0,1,4.37,9.26c-.58,3.72-3.44,5.26-6.39,3.68L179.44,106.74c-3-1.58-4.88-5.69-4.33-9.22.59-3.73,3.4-5.3,6.34-3.72Z"/><path class="cls-20" d="M829.94,589.94l-15.13,93.31,2.36.28,6.43-2.5c7.06-2.77,10.76-10.12,11.79-17.26l11.2-80.34a.17.17,0,0,0,0-.07c1.48-10.41-1.65-21.25-7.38-30a34.87,34.87,0,0,0-12.12-11.69l-98.79-54.23c-4.91-2.79-10.66-3.82-16-1.79l-5.67,2.21c-2.86,1.07-3.74,1.93-3.72,2.11C705.55,515,833.69,564.34,829.94,589.94Z"/><path class="cls-31" d="M820.61,544.28,721.82,490c-5.73-3.18-11.34-3.63-16-1.8-6,2.34-10.5,8.42-11.8,17.28l-11.2,80.34c-2.31,15.77,6.38,34.45,19.45,41.69L801,681.79c13.08,7.25,25.55.31,27.86-15.46L840.1,586C842.41,570.22,833.69,551.52,820.61,544.28Z"/><path class="cls-32" d="M777.58,549.85a7.88,7.88,0,0,1,.81,4.59,30.38,30.38,0,0,1-1.79,5.89l-21.05,58.46c-.68,2-1.31,3.44-1.76,4.51a3.56,3.56,0,0,1-1.9,2c-.73.33-1.74.11-3-.7-3.16-1.95-4.55-4.72-4.16-8.06a42,42,0,0,1,1.74-6.1l21-58.5a21.49,21.49,0,0,1,2.82-6c.77-1,2.09-.83,3.87.27a8.85,8.85,0,0,1,3.46,3.64ZM783.2,565l-1.93,16.26,31.1,36.08L777.51,613l-1.94,16.34,50.17,3.92,1.64-13.84L783.2,565Zm-87.69-12.4L739.71,607l1.93-16.33-30.95-36.31,34.7,4.72,2-16.47-50.18-4Z"/><path class="cls-31" d="M442,553.52c1.78-12.15,11-17.51,20.66-12L605.88,622.3c9.63,5.55,16,19.91,14.23,32.06L601.06,784c-1.78,12.14-11,17.51-20.66,12L437.2,715.2c-9.63-5.55-16-19.92-14.22-32.06Z"/><polygon class="cls-33" points="459.45 685.65 509.41 616.46 519.09 689.83 543.42 663.38 557.75 741.83 459.45 685.65"/><path class="cls-34" d="M541.74,619.53c5.34,1.08,9.36,7.34,9,14s-5,11.12-10.36,10-9.36-7.34-9-14S536.4,618.44,541.74,619.53Z"/><path class="cls-35" d="M453.66,572.07c1.48-10.09,9.16-14.55,17.17-9.94l119,67.09c8,4.61,13.29,16.54,11.81,26.64L585.8,763.56c-1.48,10.09-9.17,14.54-17.17,9.93l-119-67.08c-8-4.62-13.29-16.55-11.81-26.64Z"/><path class="cls-31" d="M635.28,665.76c1.78-12.15,11-17.52,20.66-12l143.19,80.74c9.62,5.55,16,19.91,14.22,32.06l-19,129.62c-1.78,12.14-11,17.5-20.67,12L630.45,827.44c-9.63-5.56-16-19.92-14.22-32.06Z"/><polygon class="cls-36" points="652.7 797.89 702.65 728.7 712.34 802.07 736.67 775.62 751 854.07 652.7 797.89"/><path class="cls-34" d="M735,731.77c5.34,1.08,9.36,7.34,9,14s-5,11.11-10.36,10-9.36-7.34-9-14S729.65,730.68,735,731.77Z"/><path class="cls-37" d="M646.91,684.31c1.48-10.09,9.16-14.55,17.17-9.94l119,67.09c8,4.61,13.3,16.54,11.82,26.63L779,875.79c-1.47,10.09-9.17,14.55-17.16,9.94l-119-67.09c-8-4.61-13.29-16.54-11.82-26.63Z"/><path class="cls-20" d="M637.4,169.88c.65-4.56-2.39-8.07-.41-11.09,2.14-3.27,9.42-5.61,12.56-6.74,4.47-1.61,9.72-1.09,15.07,2L882.79,278.76c12.74,7.29,21.23,26.23,19,42.27L877.25,492.2c-1.12,7.86-4.62,13.57-9.4,16.5-2.92,1.79-10.92,5.21-14.54,4.77-2.55-.31-.61-3.88-3.29-5.41L631.86,383.32c-12.76-7.3-21.24-26.23-19-42.27Z"/><path class="cls-38" d="M630.86,172.49c2.29-16,14.47-23.15,27.23-15.86L876.25,281.37c12.74,7.29,21.23,26.23,19,42.27L870.71,494.81c-2.28,16-14.49,23.14-27.23,15.85L625.32,385.93c-12.75-7.3-21.23-26.23-19-42.27Z"/><path class="cls-39" d="M613.92,351.5c.2-1.39,1.26-2,2.36-1.32l242,138.74a4,4,0,0,1,1.64,3.73l-.64,4.22c-.2,1.39-1.26,2-2.36,1.32l-242-138.74a4,4,0,0,1-1.64-3.72Z"/><path class="cls-40" d="M614,351.64c.19-1.35,1.21-1.92,2.27-1.28l97.6,55.94a3.87,3.87,0,0,1,1.58,3.6l-.62,4.07c-.19,1.34-1.21,1.92-2.27,1.28L615,359.3a3.86,3.86,0,0,1-1.58-3.59Z"/><path class="cls-41" d="M709.69,269.28c.54-3.82,3.44-5.51,6.48-3.78l67.16,38.42c3,1.74,5,6.24,4.51,10.06l-9.06,63.91c-.55,3.81-3.45,5.5-6.48,3.77l-67.16-38.42c-3-1.73-5.06-6.24-4.51-10.06Z"/><path class="cls-42" d="M748,297.09c-11.63-6.65-22.73-.17-24.82,14.45s5.64,31.89,17.27,38.54,22.73.17,24.82-14.47S759.62,303.73,748,297.09Z"/><polygon class="cls-31" points="737.25 304.19 733.58 330.66 756.01 331.27 737.25 304.19"/></g><path class="cls-43" d="M383.31,190.27c3.21-23.66,21.16-33.85,40.09-22.71L619,281.74c18.92,11.13,31.68,39.38,28.47,63l-29.8,225.53c-3.21,23.66-21.18,33.84-40.1,22.71L382,478.84c-18.94-11.14-31.68-39.38-28.47-63Z"/><path class="cls-20" d="M390.25,189c.34-2.56.85-14,3.92-16.31,4.14-3.14,11.69-7.7,13.92-8.3,5.83-1.55,12.55-.53,19.41,3.51L610.23,273.76c17.57,10.34,29.43,36.59,26.45,58.58L609,541.91c-1,7.68-3.76,13.83-7.6,18.14-2.6,2.92-8.67,7-13.73,9.62-5.24,2.7-12.61-4.71-15.93-6.66L389,457.12c-17.6-10.36-29.44-36.6-26.46-58.58Z"/><path class="cls-31" d="M383.81,193.46c3-22,19.66-31.45,37.26-21.1l181.7,106.1c17.58,10.34,29.44,36.59,26.46,58.58l-27.7,209.57c-3,22-19.68,31.44-37.25,21.09L382.57,461.61C365,451.26,353.14,425,356.12,403Z"/><path class="cls-44" d="M383.81,193.46c3-22,19.66-31.45,37.26-21.1l181.7,106.1c17.58,10.34,29.44,36.59,26.46,58.58l-2.84,20.82L380.94,214.54Z"/><path class="cls-31" d="M413,194.28c4,.95,7.06,5.74,6.83,10.71s-3.67,8.22-7.67,7.27-7.06-5.74-6.83-10.71S409,193.33,413,194.28Z"/><path class="cls-31" d="M434.39,207.6c4,1,7.06,5.74,6.83,10.71s-3.67,8.22-7.67,7.27-7.06-5.74-6.83-10.71S430.39,206.65,434.39,207.6Z"/><path class="cls-31" d="M455.75,220.91c4,1,7.06,5.75,6.83,10.71s-3.67,8.23-7.67,7.28-7.06-5.75-6.83-10.71S451.75,220,455.75,220.91Z"/><path class="cls-45" d="M422.36,256.18c18.55,4.4,32.72,26.62,31.64,49.64s-17,38.11-35.53,33.71-32.72-26.63-31.64-49.64S403.81,251.78,422.36,256.18Z"/><path class="cls-46" d="M421.46,275.38c10,2.38,17.64,14.36,17.07,26.77s-9.16,20.54-19.16,18.17S401.73,306,402.31,293.56,411.46,273,421.46,275.38Z"/><path class="cls-47" d="M465.16,300.84c.66-4.89,4.36-6.94,8.27-4.56L592.2,364.74c3.9,2.37,6.53,8.26,5.86,13.15l-1.28,9.68c-.66,4.88-4.37,6.93-8.27,4.56L469.74,323.67c-3.9-2.38-6.53-8.27-5.87-13.16Z"/><path class="cls-47" d="M460.44,336.41c.39-2.88,2.57-4.09,4.88-2.69l70.13,40.43a8.43,8.43,0,0,1,3.47,7.77l-.76,5.71c-.39,2.88-2.58,4.09-4.88,2.69l-70.14-40.43a8.44,8.44,0,0,1-3.46-7.77Z"/><path class="cls-47" d="M381.16,345.48c.48-3.56,3.18-5.05,6-3.32L592.3,459.84c2.83,1.72,4.75,6,4.27,9.58l-.64,4.66c-.48,3.56-3.18,5.05-6,3.33L384.8,359.73c-2.85-1.73-4.76-6-4.28-9.58Z"/><path class="cls-47" d="M376.87,380c.49-3.56,3.18-5.05,6-3.32L588,494.35c2.84,1.73,4.75,6,4.27,9.58l-.64,4.67c-.48,3.56-3.18,5-6,3.32L380.51,394.25c-2.85-1.73-4.76-6-4.28-9.59Z"/><path class="cls-47" d="M372.38,412.88c.48-3.56,3.18-5.05,6-3.32L583.52,527.23c2.83,1.73,4.75,6,4.27,9.58l-.64,4.67c-.48,3.56-3.18,5-6,3.32L376,427.13c-2.84-1.73-4.75-6-4.27-9.59Z"/></g></g></g></svg>