<svg xmlns="http://www.w3.org/2000/svg" xmlns:xlink="http://www.w3.org/1999/xlink" viewBox="0 0 263.27 570.02"><defs><style>.cls-1{isolation:isolate;}.cls-2{fill:#955cf1;}.cls-10,.cls-11,.cls-12,.cls-13,.cls-14,.cls-15,.cls-16,.cls-17,.cls-18,.cls-19,.cls-2,.cls-20,.cls-21,.cls-22,.cls-23,.cls-24,.cls-25,.cls-3,.cls-4,.cls-5,.cls-6,.cls-7,.cls-8,.cls-9{fill-rule:evenodd;}.cls-2,.cls-8{opacity:0.3;}.cls-3{fill:#fff;}.cls-4{fill:#ffa495;}.cls-5{fill:#193161;}.cls-6{fill:url(#linear-gradient);}.cls-7{fill:url(#GradientFill_15);}.cls-8{fill:#1e2353;}.cls-15,.cls-8{mix-blend-mode:multiply;}.cls-9{fill:url(#linear-gradient-2);}.cls-10{fill:url(#GradientFill_15-2);}.cls-11{fill:url(#linear-gradient-3);}.cls-12{fill:#ff8978;}.cls-13{fill:url(#linear-gradient-4);}.cls-14{fill:url(#linear-gradient-5);}.cls-15{fill:#6266d7;opacity:0.35;}.cls-16{fill:#ffa698;}.cls-17{fill:url(#linear-gradient-6);}.cls-18{fill:url(#linear-gradient-7);}.cls-19{fill:#ffb49c;}.cls-20{fill:#ff9d8e;}.cls-21{fill:#726cde;}.cls-22{fill:#562e65;}.cls-23{fill:url(#linear-gradient-8);}.cls-24{fill:url(#linear-gradient-9);}.cls-25{fill:url(#linear-gradient-10);}</style><linearGradient id="linear-gradient" x1="103.34" y1="317.1" x2="77.83" y2="439.16" gradientUnits="userSpaceOnUse"><stop offset="0" stop-color="#40457f"/><stop offset="1" stop-color="#1e2353"/></linearGradient><linearGradient id="GradientFill_15" x1="108.96" y1="473.23" x2="99.38" y2="486.97" gradientUnits="userSpaceOnUse"><stop offset="0" stop-color="#3773b9"/><stop offset="1" stop-color="#003c76"/></linearGradient><linearGradient id="linear-gradient-2" x1="126.09" y1="330.88" x2="39.08" y2="449.54" xlink:href="#linear-gradient"/><linearGradient id="GradientFill_15-2" x1="59.9" y1="501.25" x2="45.42" y2="504.95" xlink:href="#GradientFill_15"/><linearGradient id="linear-gradient-3" x1="150.54" y1="44.44" x2="168.86" y2="18.26" gradientUnits="userSpaceOnUse"><stop offset="0" stop-color="#ff8a78"/><stop offset="1" stop-color="#ffa799"/></linearGradient><linearGradient id="linear-gradient-4" x1="112.38" y1="109.89" x2="133.55" y2="149.62" gradientUnits="userSpaceOnUse"><stop offset="0" stop-color="#a77ef7"/><stop offset="1" stop-color="#5e65d6"/></linearGradient><linearGradient id="linear-gradient-5" x1="108.25" y1="174.26" x2="95.68" y2="284.44" xlink:href="#linear-gradient-4"/><linearGradient id="linear-gradient-6" x1="108.9" y1="142.17" x2="104.99" y2="152.01" xlink:href="#linear-gradient-3"/><linearGradient id="linear-gradient-7" x1="122.17" y1="114.63" x2="116.4" y2="125.71" gradientUnits="userSpaceOnUse"><stop offset="0" stop-color="#ffb89e"/><stop offset="1" stop-color="#ffa799"/></linearGradient><linearGradient id="linear-gradient-8" x1="109.94" y1="87.67" x2="84.44" y2="102.27" gradientUnits="userSpaceOnUse"><stop offset="0" stop-color="#8a4791"/><stop offset="1" stop-color="#562e65"/></linearGradient><linearGradient id="linear-gradient-9" x1="239.15" y1="153.48" x2="256.24" y2="130.91" xlink:href="#linear-gradient-3"/><linearGradient id="linear-gradient-10" x1="185.95" y1="161.85" x2="191.13" y2="266.82" xlink:href="#linear-gradient-4"/></defs><title>Recurso 3</title><g class="cls-1"><g id="Capa_2" data-name="Capa 2"><g id="Capa_1-2" data-name="Capa 1"><path class="cls-2" d="M10.39,518.6,120.23,456c12-5.47,29.11-9.82,41.31-3.47,11.12,5.78,29.43,17.62,37.53,22.24,6.15,3.51,27.5,16.3,14.2,23.53-39.12,21.27-77.83,45.19-117.55,66.8-7.51,4.08-18.5,5.56-30,4.6s-23.27-4.3-32.54-9.69L13.67,548.72c-8.61-5-13.18-11-13.63-16.44S3,522,10.39,518.6Z"/><path class="cls-3" d="M50.86,515.29c2.15,0,9.4-6.86,16.27-3.42,8.24,4.13,23.9.47,31.8,2.37,1.41.33,4.16-.7,4.7.26,1.71,3,3.35,7.56-.84,10.52-3.08,2.18-9.67,5.07-14,6.6-4.59,1.63-12.44,4.19-17.71,5-5.83.92-8.49,1.29-10.68,3-3.12,1.57-6.34,2.24-8.14,1.95-3.85-.61-8.33-2.86-10.38-7.24-.66-1.41-.68-7.53.08-11.5.59-3.13,2.3-6.7,3.67-10Z"/><path class="cls-4" d="M67.73,500.64c-2.61,6.26-1.81,16-8,19.31-4.13,2.25-10.6,2.27-13.42-4.15-1.58-3.58.51-9.7,0-17.56Z"/><path class="cls-5" d="M69.45,510.34c4.73,1.37,17.81.45,26.08,1.12,3.55.29,6.74.26,8.4,3.49,1.53,3,.73,5.51-2.73,8a58.82,58.82,0,0,1-12.64,6.2c-4.58,1.62-12.44,4.18-17.71,5-5.83.91-8.49,1.29-10.67,3-3.12,1.57-6.35,2.25-8.15,2a14.32,14.32,0,0,1-10.38-7.7c-.66-1.41-.68-7.07.08-11a18.4,18.4,0,0,1,.61-2.34c.65-6.22,2.7-8.74,4.64-7.68,2.65,1.46,3.65,4.09,4.66,6.24a6.06,6.06,0,0,0,3.6,3.44c3.17,1,6.07-.77,7.94-3.49a22.16,22.16,0,0,0,2.17-6.31c0-.21,0-.42,0-.63.62-5.44,3.27-5,2.87-3.82S68,509.23,69.45,510.34Z"/><path class="cls-3" d="M102.28,514c-.07,2.11,3.16,2.3,2.22,6,1.55-1.52-.61-5.88-1.56-6.54C102.54,513.22,102.21,513.1,102.28,514Z"/><path class="cls-3" d="M104.75,493.73c2-.79,6.46-9.68,14.09-8.81,3.08.35,8-.45,13-1.88,8-2.28,19.17-9.44,21.07-8.26,4.15,2.55,4.48,7.2,1.57,11.42a58.23,58.23,0,0,1-9.73,10.17c-3.75,3.11-9.07,7.86-13.73,10.44-4.4,2.45-5.87,2.23-9,6.47a14.7,14.7,0,0,1-7,4.41c-4.58.9-11.23-2-13.62-5.11-1.53-4.93-4.17-9.59-2.48-17Z"/><path class="cls-4" d="M115.33,472.75c-.13,6.78,4.18,15.5-.33,20.9-3,3.61-9,6-14,1.07-2.78-2.75-3.08-9.21-6.41-16.35Z"/><path class="cls-5" d="M129.84,481l1.37-.38c8-2.28,18.71-7.79,20.61-6.62,4.15,2.55,4.94,5.56,2,9.79A59.3,59.3,0,0,1,144.12,494c-3.75,3.11-9.07,7.86-13.73,10.45-4.41,2.44-5.87,2.22-9,6.46a14.57,14.57,0,0,1-7,4.41c-4.58.9-11.43-2.07-13.82-5.14-1.13-3.67-2.68-7.16-2.81-11.77-.67-6-.25-9.1,2.37-9,4.88.14,6.9,2.71,8.92,4,4.34,2.71,7.25-.79,8-5.12a25.68,25.68,0,0,0-.4-5.72,6,6,0,0,0-.23-.59c-1.42-5.29,1.22-5.82,1.26-4.61a4.54,4.54,0,0,0,4,4.62C124.34,482.31,127.69,481.2,129.84,481Z"/><path class="cls-3" d="M151.33,474.69c.85,1.93,3.84.72,4.59,4.45.75-2-3.08-5-4.23-5.22C151.22,473.84,150.87,473.89,151.33,474.69Z"/><path class="cls-6" d="M110.71,289.55c1.76,19.66,11.61,82.43,8.87,99.66-4.12,25.91-3,57.22-2.9,84.72-.7,11.56-16.58,17.6-21.21,10.26-3.71-24.58-9-46.11-11.14-59.77-2.41-15.29-1.61-33.87,2.27-43.92-1.6-11-9.08-39.31-15.34-58.94-2.25-7.08-15-30-1.8-52.71Z"/><path class="cls-7" d="M116.94,466.56c0,2-.06,5.14-.06,7.15-.7,11.55-16.78,17.82-21.41,10.48-.27-1.82-.67-3.61-1-5.39C100.73,485.51,112.92,476.8,116.94,466.56Z"/><path class="cls-8" d="M120,377.52c-5.18,26-19.83,60.7-27.83,86.83C88,442,77.58,403.83,86.6,380.5c-.91-6.26-3.73-18.14-7.14-30.83,6.93-13.15.3-23.64,3.58-42.15,18.36-3.2-9.35-25.61,29.5-2C116,333.4,119.27,350.93,120,377.52Z"/><path class="cls-9" d="M109.44,402.16c-10.59,24-30.12,71-40.52,100.43-5.37,7.82-24.55,7-24.51-.28,4.23-24.6,9.21-62.55,18-84.12,2.7-6.6,12.68-22.49,16.27-27.21,2.79-10.86,6.3-40.18,9-56.05-2.43-13.13-13-35.09,7.33-54.17,8.21,5.84,33.6,9.49,45.11,3C142,335.62,129.29,357.25,109.44,402.16Z"/><path class="cls-10" d="M71.08,497.47c-.47,1.28-1.39,3.88-1.82,5.11-5.54,8-25.27,7.21-25.24-.3.21-1.21.42-2.46.64-3.74C49.36,503.34,63.59,503.4,71.08,497.47Z"/><path class="cls-11" d="M174.37,2.12c-.75,1.59-1.47,3.19-2.26,4.77l-3.24,6.47c-.69-3.17-3.22-4.39-5.17-2.79a5.64,5.64,0,0,0-1.58,2.12c-.31-.86-2.76-2.82-6.08,1.9-2.07-.23-3.16.65-4,2.32a24.1,24.1,0,0,0-1.39,3.4,13.42,13.42,0,0,0-1,4.6c0,3.12.15,6.51.06,10.24-.09,4.05-4.69,9.18-7.18,12.14l15,4.76c2.29-2.88,3.54-5,5.85-7.31s5.34-2.68,7.59-4.53c1.26-1,2-2.4,4.13-5.43,1.77-2.51,2.74-5.22,4.43-8s1.55-2.22,1.71-5.41A58.12,58.12,0,0,1,182.41,15c-3.09-1.54-5.52,2.27-5.5,6-1.77,1-2.93,3.43-3.33,4.52-2.46-3.21-1-4.56,0-8.68a42.18,42.18,0,0,0,3.54-8.28c.48-1.27,1-2.59,1.47-4,.7-2.31-.19-3.95-.89-4.4S175.63,0,174.37,2.12Z"/><path class="cls-12" d="M180.64,14.69c-2.2.32-3.75,3.35-3.73,6.32a9,9,0,0,0-3.24,4.29c.9-1.15,3.19-3.64,4-3.93a9.42,9.42,0,0,1,3-6.68Zm-11.49-1.88-.28.55a5.63,5.63,0,0,0-.82-2,8,8,0,0,1-2.14,4.77,5.35,5.35,0,0,0,3.24-3.33Zm-7.05-.17a1.85,1.85,0,0,0-.8-.81,12.56,12.56,0,0,1-1.68,4.31,7.19,7.19,0,0,0,2.48-3.5Zm-6,1.85-.07.1a4.47,4.47,0,0,0-1,0,9.8,9.8,0,0,1-1.76,4.81A7.79,7.79,0,0,0,156.11,14.49Z"/><path class="cls-13" d="M117.59,89c7.57-13.18,13.49-29.7,24.07-43.09.88-1.12,3-2,3.71-3.15q1.66-2.56,3.3-5a23.39,23.39,0,0,1,15.22,6.86q-.88,2.64-1.75,5.27c-.67,2,.62,6.39,0,8.43a338.62,338.62,0,0,1-18.55,50.51c-10.48,13.53-57.09,100.37-81.46,68.86-2.19-11.21.78-20.53,6.42-29.6,3.12-5,7.86-9.4,11.06-12.72C87.31,127.4,106.09,100.86,117.59,89Z"/><path class="cls-14" d="M65.74,219.13c1.71,15.38-2.92,30.5,1.79,44.54.21,1.45.34,7.14.59,8.69,3.1,18.19,41.57,36.59,73.65,19.14.18-2.25,0-4.61.15-8.79-.59-3.9,1.09-8.08,1.08-10.46,0-9.9-3.12-15-1.65-26,3-22.41,15.42-43.94,8.56-61.57-1.48-3.78-4.06-5.62-7-8-7.58-6.09-46.79-26.06-58.68-27.46C49.72,144.8,63.89,202.45,65.74,219.13Z"/><path class="cls-15" d="M144.83,230c4.45-16.47,10.26-32,5.08-45.33-1.48-3.78-4.06-5.62-7-8-7.58-6.09-6.57,10.29-18.46,8.88C122.17,207.51,133,227.42,144.83,230Z"/><path class="cls-16" d="M120.63,142.39a84.51,84.51,0,0,0,.87,18.89c-11.24-.37-26.86-3.31-28.56-11.68.08-1,.15-2,.2-3-.15-.13-.31-.25-.46-.36-4-2.68-10.7-4.67-15-9.57-6.85-7.83-10.49-18.35-5.12-28.94,9.82-19.34,33.56-19.67,46.78-4,2.58,3,.69,6.22,2.16,9.17.29.57,1.35.83,2.57,1.84,1.7,1.4,6.63,13.49,6.5,19.8-.05,2.54-5.89,6.12-8.48,7.52A6.74,6.74,0,0,1,120.63,142.39Z"/><path class="cls-17" d="M120.63,142.39a84.51,84.51,0,0,0,.87,18.89c-11.24-.37-26.86-3.31-28.56-11.68.08-1,.15-2,.2-3-.15-.13-.33-.23-.46-.36-8.54-8,2.88-17.16,17.32-9.26A11.2,11.2,0,0,0,120.63,142.39Z"/><path class="cls-18" d="M130.59,134.49c-.05,1.11-4.65,2.78-6.58,3,1.32-11.94-10.05-13.77-8.34-25.43,1-7-6.18-9.55-3.35-14.68a32.58,32.58,0,0,1,7,6.26c2.58,3,.69,6.22,2.16,9.17.29.57,1.35.83,2.57,1.84C125.79,116.09,130.88,128.18,130.59,134.49Z"/><path class="cls-19" d="M115.1,129.63c-.22-2.67-1.3-3.18-2.2-2.47s-1.83,3.09-1.56,5.84c.44,4.44,4.55,8.42,7.39,4.83-3.1,1.64-4.56-2.33-4.7-5.14C114,130.79,114.43,129.19,115.1,129.63Z"/><path class="cls-20" d="M114.11,131.34c1.65,1.25,2.41,2.1,2.39,2.8,0,.48-.43,1.22-1.88.71A6.38,6.38,0,0,1,114.11,131.34Z"/><path class="cls-21" d="M92.8,149.3c-3.33,1-6.43,4.45-5.83,6.64,3.31,13.53,28.11,16.56,43.54,13.3.18,0-5.78-7.92-8.73-8.88C112.08,161.31,95.79,157.29,92.8,149.3Z"/><path class="cls-22" d="M91.61,148.47c-4.12-4.39-11.07-6.49-15.54-11.59s-9.22-12.76-6.28-20.7C64.6,99.87,82.33,86.94,97.25,84c10.69-2.11,17.07,9.35,12.43,17.1A15.65,15.65,0,0,1,113.27,113c-.85,4.65-.73,5.24.76,8.73,1.17,2.75,4.1,9.4-1.2,5.19-3.43-2.72-5.83,3.29-4.67,7.45a18.94,18.94,0,0,1,.75,8C107.91,151.16,93.89,150.91,91.61,148.47Z"/><path class="cls-23" d="M74.74,108.79C71.2,93,92,85,100.09,84.82s14.67,13.33,4.92,17.89C98.36,105.81,85.2,99.74,74.74,108.79Z"/><path class="cls-24" d="M239.39,131.16a11.2,11.2,0,0,0-.67,3.19,25,25,0,0,0-1.54,4.85c-.51,2.55-.32,4.57-.4,8a17.69,17.69,0,0,0,.7,4.9c-2,3.9-5.13,6.3-8.06,9.52l9.49,7.24c4-2.64,7.14-5.42,10.58-7.71,2.8-1.11,3.79-1.74,4.63-2.61,2.19-2.29,8.67-9.1,9-11.78.41-3-.38-9.84-1.05-13.62-1.72-9.62-5.38-19.73-6-15.27-.92,1.07-.17,9.77-.75,11.06-2.25,2.58-3.32,3.65-6.13,6.73-1.75,1-2.9,2-3.74,2.26s-1.51-.41-1.54-1.27.57-2.64,1.07-5.12c0-4.13-1-6.46-3.23-6.25a2.19,2.19,0,0,0-2.07,1.93C239.49,128.14,239.55,129.48,239.39,131.16Z"/><path class="cls-25" d="M143.7,171.54c13.07,2,38.29,16.39,55.7,24.19,9.7-13.83,22.44-30.41,30.29-36a25.66,25.66,0,0,0,3.91-2.8c1.14-1.4,2.25-2.83,3.33-4.31,4.91.68,12,6.81,11.93,9.7-.8,1.45-1.6,3-2.42,4.52-.56,1.07-.35,3.41-.68,4.62-2.67,9.68-17.36,32.05-24.21,42-4,5.77-5.35,9.16-8,10.88-4.3,2.76-10.07,1.25-21.19-1.54-9.36-2.35-39.57-7.85-53.47-15.18-9.8-5.18-17.32-14.49-13.43-25.22A16.88,16.88,0,0,1,143.7,171.54Z"/></g></g></g></svg>